HIERARCHY
ROOT simHips
{
  OFFSET 17.069 88.8131 -8.14083
  CHANNELS 6 Xposition Yposition Zposition Zrotation Xrotation Yrotation
  JOINT simSpine
  {
    OFFSET -0.000355721 21.3001 -0.016921
    CHANNELS 3 Zrotation Xrotation Yrotation
    JOINT simLeftArm
    {
      OFFSET 13.5181 21.3012 0
      CHANNELS 3 Zrotation Xrotation Yrotation
      JOINT simLeftForeArm
      {
        OFFSET 14.4447 2.4172 5.4856
        CHANNELS 3 Zrotation Xrotation Yrotation
        JOINT simLeftHand
        {
          OFFSET 24.5783 0 0
          CHANNELS 3 Zrotation Xrotation Yrotation
          End Site
          {
            OFFSET 7.32568 1.52588e-05 0.0169305
          }
        }
      }
    }
    JOINT simHead
    {
      OFFSET 0 27.4458 -0.00489235
      CHANNELS 3 Zrotation Xrotation Yrotation
      End Site
      {
        OFFSET 0 0 0
      }
    }
    JOINT simRightArm
    {
      OFFSET -13.5174 21.3012 0
      CHANNELS 3 Zrotation Xrotation Yrotation
      JOINT simRightForeArm
      {
        OFFSET -24.5783 0 0
        CHANNELS 3 Zrotation Xrotation Yrotation
        JOINT simRightHand
        {
          OFFSET -24.5783 0 0
          CHANNELS 3 Zrotation Xrotation Yrotation
          End Site
          {
            OFFSET -7.32568 1.52588e-05 0.0169305
          }
        }
      }
    }
  }
  JOINT simRightUpLeg
  {
    OFFSET -8.44614 -9.41038 0.835684
    CHANNELS 3 Zrotation Xrotation Yrotation
    JOINT simRightLeg
    {
      OFFSET 0 -40.9639 0
      CHANNELS 3 Zrotation Xrotation Yrotation
      JOINT simRightFoot
      {
        OFFSET 0 -40.9639 0
        CHANNELS 3 Zrotation Xrotation Yrotation
        End Site
        {
          OFFSET 0.50614 -9.67405 14.6709
        }
      }
    }
  }
  JOINT simLeftUpLeg
  {
    OFFSET 8.44614 -9.41038 0.835684
    CHANNELS 3 Zrotation Xrotation Yrotation
    JOINT simLeftLeg
    {
      OFFSET 0 -40.9639 0
      CHANNELS 3 Zrotation Xrotation Yrotation
      JOINT simLeftFoot
      {
        OFFSET 0 -40.9639 0
        CHANNELS 3 Zrotation Xrotation Yrotation
        End Site
        {
          OFFSET -0.50614 -9.67405 14.6709
        }
      }
    }
  }
}
MOTION
Frames:	19
Frame Time:	0.0333333
75.4363 82.5315 -38.9703 -2.41841 -1.38312 -82.3542 15.0742 7.15257 -16.722 -87.509 -44.8922 -68.3756 2.99145 -7.19236 -111.932 12.473 11.3838 -18.6931 7.55847 -3.3016 -74.7632 15.6379 -17.5422 -1.89268 -1.07936 -3.10715 89.7437 1.57564 -3.95205 9.72243 24.5968 -44.2209 10.5468 -4.28268 56.8694 -1.97015 -14.7942 -8.19054 -0.878391 -8.29386 20.3431 13.7118 -8.49264 32.458 6.14149 11.3828 -49.1096 -19.3655 
78.6153 82.1063 -41.7103 -1.2167 -1.38831 -81.5993 12.2666 8.17725 -16.8818 -85.406 -49.6253 -68.9584 5.69378 -6.0056 -109.418 11.2747 10.5197 -17.6018 9.90258 -3.39302 -73.0215 20.9184 -15.3777 -0.857979 -0.836073 -3.02112 91.8255 1.12697 -3.59132 10.1814 26.063 -45.9899 11.5814 -3.81229 53.2211 -2.00007 -15.9437 -3.7779 1.03771 -10.1116 14.6973 15.4058 -3.58823 36.9266 6.96851 5.01893 -52.489 -13.3099 
81.6004 81.8273 -44.4231 0.0503362 -1.31775 -81.739 8.95779 9.00471 -16.8722 -82.4723 -55.3796 -68.017 8.53811 -4.9524 -106.96 10.3283 9.68397 -16.5593 12.3242 -2.73482 -70.7317 26.8066 -11.5659 2.45006 -0.668872 -1.89886 94.4954 0.316172 -2.80601 11.7301 28.6516 -48.1308 14.5968 -3.5975 53.1304 -0.927101 -15.2204 -6.85287 4.26982 -8.86778 7.31036 16.747 -1.45629 45.3856 6.5118 2.26559 -54.6833 -11.5945 
84.4229 82.056 -47.1503 1.12642 -1.19584 -83.0795 5.63005 10.1152 -16.8367 -78.7285 -62.5965 -65.3777 10.6775 -4.31245 -104.444 9.28748 8.644 -15.3805 14.661 -1.71034 -67.6051 32.2977 -7.12346 7.63508 -1.16877 0.355753 97.1776 -0.910192 -1.68048 14.2066 31.0421 -48.6784 17.9608 -3.23423 52.7082 0.959976 -13.4748 -8.8775 10.196 -6.87154 1.17476 17.8652 -0.414407 51.2093 5.63857 0.718265 -55.1169 -11.2242 
87.106 82.97 -49.8071 1.59677 -1.05192 -85.6706 2.47354 12.2759 -16.8213 -73.4373 -71.5257 -59.9191 12.3742 -4.00597 -101.627 8.22095 7.40284 -14.2639 16.8662 -1.05963 -62.9424 36.4908 -3.92258 13.292 -1.81697 2.26958 99.7959 -1.85165 -0.681371 15.5748 30.6582 -45.5291 17.8704 -1.36938 49.0011 0.101192 -16.2881 -4.04382 13.9836 -5.16256 -3.07564 19.1143 0.387881 53.848 4.94224 -0.155209 -53.7813 -9.95115 
89.3686 84.3162 -52.4263 1.78533 -0.915086 -88.4151 -0.440691 15.1293 -17.1305 -59.935 -81.0217 -45.6052 12.9791 -4.33766 -98.3178 7.1442 5.91242 -13.0037 19.3879 -0.754886 -57.324 39.2946 -3.32046 17.7973 -1.94333 2.85918 102.255 -2.35188 0.0880643 15.0265 29.5318 -41.4956 17.6137 0.104917 46.5364 -1.38055 -18.5629 -1.51723 13.0381 -3.44311 -5.69513 19.6685 0.454816 54.2332 4.40567 -0.386749 -51.4335 -8.08144 
91.2213 85.6412 -54.9871 2.16727 -0.837734 -90.2043 -1.93077 16.9225 -17.5265 -5.75848 -85.3017 10.1691 12.3198 -5.04927 -93.5967 5.72519 4.04083 -11.1216 20.6258 -0.0471119 -53.3176 40.1044 -5.19519 19.321 -1.89892 2.4989 104.439 -2.83652 0.666211 13.8313 28.1999 -39.2053 17.8886 1.01766 48.6445 -2.35047 -18.1133 -6.17766 8.13362 -1.72039 -7.739 19.3807 -0.052591 53.852 4.08379 -0.519898 -48.9462 -6.04968 
92.8498 86.7566 -57.4346 2.76908 -0.813298 -91.1668 -2.00862 16.9396 -17.4857 29.7559 -82.7505 48.6408 11.7613 -5.56553 -87.2795 3.29203 1.54441 -8.38419 20.2392 1.13926 -51.8576 39.0246 -8.06613 17.9041 -1.88339 1.49775 106.496 -3.02506 0.672937 13.4905 25.2747 -37.8127 17.3996 2.79695 52.0226 -4.18294 -17.033 -12.223 2.18742 -0.147262 -9.80931 18.7867 -0.367528 53.4775 3.89577 -1.14789 -46.6516 -4.42371 
94.3047 87.5708 -59.763 3.49185 -0.814465 -91.7793 -1.04286 16.1218 -16.9854 13.6347 -77.9416 35.1405 9.92916 -7.28578 -82.5788 1.20431 -0.82086 -5.06066 18.5478 1.88431 -50.5592 36.7354 -11.0836 15.3603 -1.8376 0.293755 108.122 -2.98836 0.241677 14.0082 20.7852 -36.9167 17.113 6.42009 55.8125 -7.22546 -15.1295 -18.7897 -2.40526 1.0916 -11.991 17.8027 -0.124492 53.3941 3.67174 -2.2398 -44.7419 -3.11028 
95.576 87.9613 -61.9953 4.34667 -0.831065 -92.2919 0.0432463 14.7793 -16.004 -4.00988 -71.2552 20.0054 8.12835 -8.00923 -80.0636 -0.234719 -1.90349 -2.16898 16.6223 2.20568 -49.5103 34.0723 -13.6082 12.6253 -1.31703 -1.15454 108.963 -2.92727 -0.535032 15.3387 16.1187 -35.9755 17.6551 9.14544 59.3715 -9.54893 -11.6701 -25.286 -5.52798 2.20977 -14.4325 16.444 0.407379 54.0416 3.41232 -3.67394 -43.4737 -2.23413 
96.6931 87.9386 -64.1211 5.28228 -0.860983 -92.8273 0.876187 13.2484 -14.6151 -15.8293 -63.8692 10.9845 7.62519 -6.14081 -79.6924 -0.712319 -0.77486 -1.13399 14.9169 2.1834 -48.7374 31.812 -15.6425 10.348 -0.593625 -2.45796 108.339 -2.69128 -1.48883 16.86 10.8231 -34.6982 18.104 11.3825 61.892 -11.3472 -7.14206 -31.3532 -7.10374 3.27684 -17.0642 14.8916 1.16502 55.414 3.02332 -5.37802 -42.8482 -1.84669 
97.6168 87.6156 -66.1134 6.26668 -0.907159 -93.6427 0.329485 11.5373 -12.7832 -18.3378 -61.213 12.8767 11.1473 -0.345355 -77.7031 -1.45387 1.34917 -1.70574 15.1914 2.63915 -48.8282 31.4131 -17.0245 8.81395 -0.0681831 -3.48723 105.677 -2.01226 -2.47524 17.275 4.75822 -32.9311 17.9569 13.1754 62.726 -12.6601 -1.71865 -36.4006 -7.2913 4.06877 -19.6335 13.2054 2.39598 57.1044 2.30563 -7.25065 -42.7417 -1.42794 
98.392 87.1642 -67.9937 7.11617 -0.977068 -94.462 0.83068 10.0152 -11.2947 -23.6826 -55.9599 11.4698 11.7355 1.9576 -79.0492 -0.242221 3.50898 -2.73772 14.1105 2.94885 -48.9074 30.9662 -18.4905 8.6203 -0.457654 -3.59347 101.524 -1.4667 -2.92383 15.691 -2.88459 -30.7512 16.4081 16.7868 61.2302 -15.1275 3.7924 -39.6083 -6.1046 4.90833 -21.7639 11.849 3.67249 58.7211 1.33429 -9.12618 -42.8673 -1.31421 
98.9946 86.6973 -69.9226 7.83491 -1.06739 -95.1912 1.36697 8.33064 -10.1123 -25.7456 -52.6931 13.8194 12.7175 3.48774 -79.9514 1.34547 5.07761 -4.05589 12.853 3.46845 -49.0985 30.8774 -18.8189 8.83046 -0.980767 -3.55141 97.8384 -1.6084 -2.72372 12.3701 -11.3277 -28.2932 13.8259 21.3542 57.5945 -18.0745 8.89894 -40.4296 -4.17077 5.99803 -23.2871 10.7678 4.58954 59.9798 0.239151 -10.8796 -43.096 -1.40597 
99.4358 86.2863 -72.2237 8.29895 -1.13402 -95.3443 3.86004 6.89231 -9.06691 -31.2996 -45.9173 11.1834 8.98116 -0.540463 -84.3765 4.71134 6.43419 -3.94831 9.13618 3.06702 -49.2615 28.9359 -18.7142 8.93471 -1.20696 -3.06656 95.3681 -2.19238 -2.15053 9.8662 -17.8257 -25.5522 10.5363 21.3226 53.9856 -17.8691 14.2617 -39.3652 -2.48402 7.543 -24.2674 9.69912 4.80128 60.7613 -0.46452 -12.8357 -43.0389 -1.87328 
99.7363 86.0661 -75.3247 8.37611 -1.21192 -96.6981 5.44866 6.18735 -6.43728 -31.4471 -45.6245 14.0131 7.61928 -2.41241 -84.2164 4.36873 5.42366 -3.22058 7.0153 2.64382 -49.6801 27.4032 -17.9784 8.59098 -1.58365 -2.05495 94.5866 -2.50104 -1.62816 9.66984 -18.6325 -23.72 6.78256 9.4105 53.1355 -10.5955 22.0604 -36.9977 -0.38339 8.99495 -23.8531 7.85844 4.69115 60.3586 -0.0223905 -15.6755 -42.7083 -1.24536 
100.092 85.9551 -79.2774 8.21439 -1.32164 -99.7095 5.83823 6.23881 -3.13331 -29.3709 -46.1556 17.6002 5.74535 -4.76231 -83.8594 2.7714 3.49067 -2.68662 6.16488 2.71683 -48.6011 26.7884 -17.5542 8.81331 -1.97564 -0.544723 94.8936 -2.39901 -1.22584 10.722 -17.9735 -23.7401 1.62252 -1.1095 53.155 -4.14828 26.8337 -34.2489 1.50301 10.6062 -22.043 5.81114 4.26262 58.7883 1.54802 -19.289 -42.1081 0.635101 
100.468 85.7428 -83.7885 8.39379 -1.4353 -103.322 5.10867 6.03484 -0.807869 -26.4248 -46.3215 20.9637 3.81824 -6.77895 -84.1036 1.04252 1.79318 -2.95878 6.15457 3.65967 -45.0441 27.3499 -17.3656 9.47106 -2.70016 0.965405 96.6946 -3.11171 -0.407097 11.8034 -16.7951 -25.3109 -1.34133 -2.64865 55.7304 -1.93092 25.4208 -35.3288 0.912246 12.4808 -19.7231 3.68273 3.5581 56.5802 3.70048 -23.1595 -41.4916 3.33788 
100.893 85.2891 -88.4301 8.53113 -1.46265 -106.664 4.72749 6.02627 0.605742 -27.3002 -45.7662 20.3049 2.23063 -7.78265 -84.5252 -0.031224 1.09294 -3.36437 5.55926 4.99131 -39.8101 27.4889 -17.8598 9.82108 -3.26285 1.70648 99.4692 -3.98264 0.328445 12.5855 -15.5891 -27.2502 -3.44758 -1.9204 59.2431 0.570359 21.5002 -37.9503 2.47996 14.9663 -16.8805 1.91176 1.96148 54.1413 6.01997 -26.4981 -41.0569 5.94471 
